<svg xmlns="http://www.w3.org/2000/svg" width="260" height="198.4"><path fill="#c2daff" d="M100 198.4s-66.4 2.7-92.4-43.7 22.6-97 22.6-97S99.8-21.8 194.8 5.9c79 23 66.8 84.4 60.5 104.2a49.8 49.8 0 0 1-5.4 11.6c-11.6 18.3-56 76.6-150 76.7z"></path><path fill="#fff" d="M69 12.9l-6.3 22.8-.8-.3-9.2-8L28 57.6s-9.3 2.5-10.5 7.2L18 69 36.2 177l1.8 3 11.6 10.2 7.6 4.8H59l1.8-1.3 6-9.1 4.4-10.4v-1.9L67 142.6l23-54.5s-7-27.6-6.2-35.9l13.3-4.5L126.6 35l6.6.1.3 97.4c-.7 17.5-.3 31.5-.3 31.5S132 180 141 181a179.2 179.2 0 0 0 21 .5l89.2-.3s7.1-.8 6.4-9c0 0-.7-4.4-7.3-6l-3.5-.1 1.7-123.8s.2-13.7-2.4-19.3-8.7-4.4-8.7-4.4l-79.2-.7s-1.5-5.4-8.9-3a71.2 71.2 0 0 0-10.4 3.8l-14.2.5-4 .2a7.6 7.6 0 0 0-4.9 8S102 36 87.3 33.5l-8.4-1.8s-2.2-.6-4.5 2.2l-2.6 3.5-.2-8.1s5.4 0 6-11z"></path><path fill="#acadad" d="M46.1 80.6A50.8 50.8 0 0 1 57 81.8l-2-10.9L44 66zM38.4 63.2l-10.6-4.9c-8 1.8-10.5 6.7-10.5 6.7l3.6 21.4a52.8 52.8 0 0 1 20-5.6z"></path><path fill="#ffd900" d="M38.4 32.6l4 7.7s.8 2.5 4.4.3l12-7.6-7.8-7s-3-2.5-7.3.6l-5.3 6m15.5 27.3l9-5.3s3.3-2.7 4.3 1l5.9 20.1s.7 1.6-1.7 2.9-5.5 2.7-5.5 2.7 2.2-3.6-1.2-11.6L54 59.9m1.4 10.5l4.8 2.8a19.3 19.3 0 0 0 .7 6.8l-.1 3.4-3.1 1.5-2.3-14.5m24.5-38.8l-3.2 12a2.2 2.2 0 0 0 2 3.3c3.4.4 14.7 0 14.7 0a2.5 2.5 0 0 0 2.4-2.2c.3-2.2 0-10 0-10S81 32.5 79.9 31.5M81 92.3l-1.5-10.6s-.5-1 1-1.2l7.6-1.1 1.3 8.2S86 92 81 92.3"></path><path fill="#0067ff" d="M62.7 114.4l-3.3-19.3a45.5 45.5 0 0 0 8 .1 53.2 53.2 0 0 0 7.8-.8 38.7 38.7 0 0 0 14.4-5.7 86.4 86.4 0 0 1 1.6 9.1c.9 7.8.5 15.7.1 23.5l-.7 17.2c-.2 5.3-.6 10.7-.5 16.1q-1-1.6-2.2-3.1a39.2 39.2 0 0 1-3.8-6.7 43 43 0 0 1-2.2-7.4 326 326 0 0 1-3.2-16L76 103.2c0-.3-.5-.3-.5 0 .4 5.5 1.3 11 2.2 16.5q1.3 8.3 3 16.6a59.1 59.1 0 0 0 2 7.5 32.8 32.8 0 0 0 3.4 6.7c3 4.6 6.3 9 9.6 13.2q4.4 5.8 9 11.5l-3.3 4.3c-1 1-1.9 2.2-2.7 3.4a.5.5 0 0 0-.5.1l-16.4-20.5-8.3-10.6a76.9 76.9 0 0 1-6.2-10c-.2-2.1-.7-4.3-1-6.5l-1.2-7.2-2.3-13.7zM88.1 172c-.3 3.3-.1 6.8-.2 10.1v5.5a.5.5 0 0 0-.2 0 27.6 27.6 0 0 1-4.8.3c-1.4 0-2.8-.5-4.2-.5l-.2-11c0-5.6.2-11.2-.2-16.7l2.5 3L88 172z"></path><path fill="#acadad" d="M70.7 173.4a16.5 16.5 0 0 1-1 3.8A76.1 76.1 0 0 1 66 185c-2.8.8-5.3 2.2-8 3a37.3 37.3 0 0 1-8.7 1.4l-1.6-1.1a85.2 85.2 0 0 1-7-6 19.6 19.6 0 0 1-4-5 5.8 5.8 0 0 1 3.7-3.2 5.4 5.4 0 0 1 5.2 1.6.5.5 0 0 0 .8 0c2-1.7 4.1-3.3 6.8-3.5a8 8 0 0 1 3.2.4 10.2 10.2 0 0 1 3.2 2 .5.5 0 0 0 .7 0 .2.2 0 0 0 .2 0 10.6 10.6 0 0 1 4.8-2.5 6.3 6.3 0 0 1 5.3 1.3z"></path><path d="M46.8 82.5c0-.4-.6-.2-.5.1q1 5 1.7 10l.5 3.2c.4 2.8.8 5.5 1 8.2.1.5.9.5.9 0a145.8 145.8 0 0 0-3.6-21.5zM39.9 74a40.8 40.8 0 0 0-8.2 1.4l-4.3 1.3a46.8 46.8 0 0 0-7 3c-.4.2 0 .7.2.5l3.1-1.3a74.9 74.9 0 0 1 13.6-3.7l2.7-.4c.5 0 .4-.8-.1-.8zM118.3 157a.3.3 0 0 0-.6 0l-.1 2.8a212.4 212.4 0 0 0-.5 17.7v.5a.5.5 0 0 0 1.1 0 319.2 319.2 0 0 0 0-21zM131.2 42.5a.3.3 0 0 0-.3.3l-.3 8c-.6 17-.3 34.2-.7 51.3-.4 21-1.6 42.2-1.2 63.2a.6.6 0 1 0 1 0c1.3-21 1-42.2 1.3-63.2.2-11.5.5-23 .3-34.4l.2-24.9a.3.3 0 0 0-.3-.3zM36 107.6c-.6-4.9-1.3-9.8-2.2-14.6l-.7-4.3c-.2-.9-.5-2.2-.5-2.9a.3.3 0 0 0-.6 0 15.6 15.6 0 0 0 .4 2.2l.8 5.3 1.9 13.5 5 32 3.4 22.7.7 4.3a.4.4 0 0 0 .2.3c.3.2.8 0 .8-.4-1.5-13.5-4-26.8-6.4-40.2zM141.6 135.8a.3.3 0 0 0 .3.3l15.7.3h19c11.3-.1 23.2.5 34.5-1a.5.5 0 0 0 .3 0 .5.5 0 0 0 .1-.1.5.5 0 0 0 0-.1.5.5 0 0 0 .1-.1.4.4 0 0 0 0-.1.5.5 0 0 0-.5-.6c-11.4-.6-23.2.6-34.6.8l-25.9.3H142a.3.3 0 0 0-.3.3zM22 137.8c0-.3-.5-.3-.5 0 0 1.4.3 2.6.4 4 1.3 12.4 3.5 25 5 37.4a.6.6 0 0 0 0 .3.4.4 0 0 0 .4.2c.4.2.8 0 .7-.5a312.7 312.7 0 0 0-6-41.4zM150.9 151q10 .1 20-.4l5.7-.4c.5 0 .5-.8 0-.8h-.7q-12.9.5-25.7.7H142v.1h-1.2a.3.3 0 0 0 0 .6h1.2c3 .2 6 .2 9 .2zM53.6 75a.5.5 0 0 0-.2 0 15 15 0 0 0-8 .2.3.3 0 0 0 .2.6 16 16 0 0 1 7.2 0h.4a.5.5 0 0 0 .4-.7z"></path><path d="M252.8 166.5a.2.2 0 0 0-.2-.2.2.2 0 0 0-.1 0 8.4 8.4 0 0 0-1.8-.3.4.4 0 0 0-.1 0l-3.5.1.2-8.8.7-25.4.1-5 .7-45V71c.3-10.1.7-20.3.2-30.4v-.5a76 76 0 0 0-.6-8c-.3-3.4-.8-7.4-2.5-10.2v-.1l-.2-.3a6.8 6.8 0 0 0-3.7-3 13.6 13.6 0 0 0-4.6-.5l-6 .1h-14.6l-29.3-.3-28 .5h-.6a9.6 9.6 0 0 0-2.9-3.7 6.4 6.4 0 0 0-5-.6 32.4 32.4 0 0 0-8.7 2.7 63 63 0 0 0-4.3 1.9h-4.6l-8.8.1a6 6 0 0 0-3.2.2 7.6 7.6 0 0 0-5.5 5.8 10 10 0 0 0-.3 2.4 46.4 46.4 0 0 1-28.4 5.9l-6-1.3a14.4 14.4 0 0 0-1.5-.3 4.3 4.3 0 0 0-3.3.5 4.6 4.6 0 0 0-.5.3 4.7 4.7 0 0 0-.5.6 68.7 68.7 0 0 0-3.1 3.3.3.3 0 0 1-.1-.1l-.4-6.6a4.8 4.8 0 0 0 3-1.2 6.2 6.2 0 0 0 1.2-1.4v-.1a7.5 7.5 0 0 0 .4-.8l.2-.4a25.4 25.4 0 0 0 1-6.8h.2a2.6 2.6 0 0 0 1.3-.5 2.6 2.6 0 0 0 .4-.4 2.2 2.2 0 0 0 .2-2.5 1.4 1.4 0 0 0-.5-.6 2.3 2.3 0 0 0-1.7-.5 2.3 2.3 0 0 0-.8.2c-3.8-.2-3.4-.3-5.6-1.4-.7-.6-1.9-1.4-2.7-.6a3.4 3.4 0 0 0-.6 1.5l-.8 3-.4 1.6-2.1 8.4c-.8 2.7-1.4 5.5-2 8.4l-.9-.8a98.2 98.2 0 0 0-8.5-7.4c-1.5-1.4-3.3-2.7-5.4-2.7a6 6 0 0 0-2.4.7C39 28 35 37 32.2 43.1q-.6 1-1 2.2c-1.6 3-4 6.9-4.3 10a3.2 3.2 0 0 0 0 1.6 2.5 2.5 0 0 0 .2.7c-.5 0-1 .2-1.5.4-2.9.8-6 2.3-7.6 4.6a5 5 0 0 0-.4.7A4.7 4.7 0 0 0 17 65c-.5 3.1.6 7 1 9.6l.6 3.9v.6c1.4 9.5 3.1 19 4.8 28.4l12.2 70a.5.5 0 0 0 .6.3 14.8 14.8 0 0 0 .8 1.5c2.6 4.4 7.8 8 11.5 10.7l.5.4c2.5 2 6.6 5.7 9.6 5.5a3 3 0 0 0 .7-.1l.3-.1.2-.1a5.2 5.2 0 0 0 1.7-1.5 26.2 26.2 0 0 0 1.6-2.2c3-4.5 6.8-10.4 8.1-16.3a13.8 13.8 0 0 0 .5-2 .4.4 0 0 0 0-.3v-.4a20.3 20.3 0 0 0-.3-4.4c-.9-8-2.4-16-3.8-24a92.3 92.3 0 0 0 10 14.4l-.1 5.2c-.4 10 0 20.2.1 30.3a.5.5 0 0 0 0 .1.5.5 0 0 0 .1.2.5.5 0 0 0 .2 0 .4.4 0 0 0 0 .1.5.5 0 0 0 .2 0 .5.5 0 0 0 .2 0l2.6.7.8.3.2.2.7.2a6.7 6.7 0 0 0 1 .3l.2.1.8.2h.2l.9.1a11.5 11.5 0 0 0 2.8-.1c1.1-.2 4.3-1 4.4-2.5a1 1 0 0 0-.2-1 .8.8 0 0 0-.7-.6 4.4 4.4 0 0 0-.5-.3 8.7 8.7 0 0 1-2.8-5v-.5a30.1 30.1 0 0 1 0-3v-6.1-4.8l9 11.4c-.4 3-.8 6.5-4 8a.5.5 0 0 0-.1.7l.3.2a5.1 5.1 0 0 0 5.4.6 8.8 8.8 0 0 0 1.4-.7h.2a7.5 7.5 0 0 0 3.3-3.7 19.4 19.4 0 0 0 .6-2.3 17 17 0 0 1 1.6-3.6l1.2-1.7a9.3 9.3 0 0 0 1.4-2.2.4.4 0 0 0 0-.4 3.4 3.4 0 0 0-1-1.6.6.6 0 0 0-.2-.3q-7-8.4-13.7-17.2l-2.7-3.7-.4-.5c.7-6.9.6-14 .9-20.8l.9-22.4a95.5 95.5 0 0 0-.3-11.6 87.6 87.6 0 0 0-2-13.2.6.6 0 0 0-.3-.7l-.4-1.9-1.2-5a134.3 134.3 0 0 1-4.2-27.7l2.8-1A294 294 0 0 0 122 37.4l3.7-1.6a.3.3 0 0 0 .1-.1l3.4-.1h3.7l.2 6.4.3 19v20l-.1 38.6-.3 26-.1 10c-.2 5-.5 10.2.3 15 .5 3.3 1.3 7.3 4 9.3a5.5 5.5 0 0 0 1.7.9 4.5 4.5 0 0 0 3.6-.3 6.9 6.9 0 0 0 3-3l.2-.3.2-.4a8.1 8.1 0 0 0-.3-7.2c-1.3-2.4-4.5-4-6.4-1.3a5.8 5.8 0 0 0-1 4.3.3.3 0 0 0 .5.2.4.4 0 0 0 .2 0h6.8a.4.4 0 0 0 .1 0v.7a7.5 7.5 0 0 1-2 5l-3.7-.4c-1.6.5-2.9.4-3.7-.3a13.6 13.6 0 0 1-1.8-4.2 33 33 0 0 1-1-6.7c-.2-4.4 0-8.8.1-13.2q.4-27 .5-54.1c.1-18 .2-36-.2-53.9 0-3 0-6-.2-9.1a26 26 0 0 0-3.2-13.6l-.1-.1-.5-.7a9 9 0 0 0-.5-.5l-.2-.3a9.6 9.6 0 0 0-.8-.6l-.1-.1a9 9 0 0 0-.8-.6 11 11 0 0 0-1-.6l6.8-.1h12.9a2.2 2.2 0 0 0 3.1.2c.4 1.2 1.4 3.1 2.7 2.8.6-.2.7-.9.8-1.4a6.7 6.7 0 0 0 0-1.7l8-.2 37.7-.4h9.7l14.5.1c4.5 0 9.1.2 13.6 0h.8c3.4.1 6.4.7 8.2 3.8l.2.3a24.2 24.2 0 0 1 1.7 6.6c.4 2.4.7 4.7.8 7.1.4 7.2.2 14.5.1 21.7l-.1 19.8-.7 44.1-1 40.1v3.8c-25.7 1-51.4 1-77 .6l-23.2-.3a.4.4 0 0 0 0 .7c27.1.5 54.2.9 81.3.3q11.5-.2 23-.7a7.4 7.4 0 0 1 5.8 3.4 7.5 7.5 0 0 1-.2 7.9l-.2.4-.2.2a7.5 7.5 0 0 1-3.8 2.4.4.4 0 0 0-.3 0h-19.5a.4.4 0 0 0 0 .8h19.2a.4.4 0 0 0 .2 0 8.2 8.2 0 0 0 6.7-8 8 8 0 0 0-5.4-7.3zM151.7 21.3a.6.6 0 0 1-.8-.5 5.9 5.9 0 0 1-1-2.1.4.4 0 0 0-.7-.1 1.4 1.4 0 0 1-2.7-.5.4.4 0 1 0-.8.1 2.6 2.6 0 0 0 .1.4h-6a71 71 0 0 1 9.5-3.4l2.2-.5a9 9 0 0 1 6.5 3.6v.1l-5.4.1a3.5 3.5 0 0 1-.2-1 .4.4 0 0 0-.3-.6c-.8.5-.1 1.6 0 2.2a6.1 6.1 0 0 1 0 1.5v.7a.8.8 0 0 1-.1 0 1 1 0 0 1-.3 0zM84.4 52a119.5 119.5 0 0 1 .2-7.4c0-.4-.5-.3-.5 0a64.7 64.7 0 0 0-.5 11.3l.1 1.6v.6a119.4 119.4 0 0 0 2.9 18.1c.9 4 1.8 7.8 2.5 11.6l-1.3.9a39 39 0 0 1-12.6 4.8 51.5 51.5 0 0 1-10.8.9h-5a455.3 455.3 0 0 0-3.9-23.1l4.4 2a.4.4 0 0 0 .2 0 10.2 10.2 0 0 0 0 5.7 10 10 0 0 1 .3 3.8v.3c-.2 1.4-.6 3.5.6 4a.5.5 0 0 0 0 .1 1.3 1.3 0 0 0 1.7-.3 7.3 7.3 0 0 0 1.4-2.2l.2-.4.3 1.6a.4.4 0 0 0 0 .1h.1a.3.3 0 0 0 .2.1.3.3 0 0 0 .1 0 .3.3 0 0 0 .2 0 3.8 3.8 0 0 0 1.2-2.5 17.7 17.7 0 0 0 .3-4.7v-1.2a19 19 0 0 0-1.7-7.5l-.3-.4a.3.3 0 0 0 0-.1.4.4 0 0 0 0-.3l-.4-.4a.3.3 0 0 0-.2-.2 93.2 93.2 0 0 0-7.8-7.3l-2-1.7a86.4 86.4 0 0 0-9-6.7l1.6-2.5 5.9-9.8a.3.3 0 0 0-.5-.3l-5.8 9.2-.5-.2a78.4 78.4 0 0 0-8.2-4.3 45.7 45.7 0 0 0-4.8-1.8q1-2.2 2.2-4.3a60.1 60.1 0 0 1 4.2-6.9 56.2 56.2 0 0 1 2.4-3 21.9 21.9 0 0 1 2-2 11.7 11.7 0 0 1 1.4-.8 5.2 5.2 0 0 1 5-.2h.1a35.6 35.6 0 0 1 4 3.3l7.8 6.4.2.2a.2.2 0 0 0 .2 0 1.6 1.6 0 0 0 .3 0 .2.2 0 0 0 0-.1 1.3 1.3 0 0 0 .2-.1l.8-3 1.7-6.8a.4.4 0 0 0 .2-.2l.6-.7a22.7 22.7 0 0 1 2.2-2l1-.7a.4.4 0 0 0 .2-.4c.5-1.5.9-1.9 1-1.3a3 3 0 0 0 .5.7.4.4 0 0 0 .2.2.3.3 0 0 0 .1 0 .4.4 0 0 0 .4 0l1-1.2a6.4 6.4 0 0 1 3.6-1.6h.5a47.1 47.1 0 0 1-.9 5.7l-.1.4c-1.1 2.7-4 4.6-6.5 2.3-.4-.4-1.2.1-.8.7a3.4 3.4 0 0 0 2.4 1.6V33c-1-.1-1.7-.1-2 1.1l-.2.4-.4 1.6-.3 1V37a21.2 21.2 0 0 0-.4-3.3c-.1-.4-.2-.7-.6-.8a.3.3 0 0 0-.5-.2h-.2a5 5 0 0 0-.8 0h-1.5a.3.3 0 0 0-.3.2.2.2 0 0 0 .2.3l2.1.3h.2l-1 2.8-.6 1.7v.2l-1.2-1.7a.4.4 0 0 0-.7 0 .4.4 0 0 0 0 .5l1.6 2.2a.4.4 0 0 0 .7 0l.3-1 .5-1.1.3-1V36l.7-2a1.2 1.2 0 0 1 0 .2 9.2 9.2 0 0 1 .1 1.2l.1 1 .2 3.4v.4a.4.4 0 0 0 0 .2h.1a.4.4 0 0 0 .3.2.4.4 0 0 0 .3 0 .2.2 0 0 0 0-.1.4.4 0 0 0 .1-.2l1-3.7.4-1.2a33 33 0 0 0 .2 4 .4.4 0 0 0 .6.2 10.8 10.8 0 0 0 1.4-1.6.4.4 0 0 0 .3-.1l3.6-4v-.1c3-1.9 6.1-.8 9.2-.2l.3.1 1 .2a42.6 42.6 0 0 0 8 .7h.6a5 5 0 0 1 .5.6l.2.3.2.3a17 17 0 0 1 1.4 4.4l.2 1.1c.2 1.8.2 3.6.2 5.1a.6.6 0 0 0 .2.5c-3.3 1.2-6.7 2.4-10 3.8l-3.3 1.2zm11.2 111.7l.4.6 8.5 10.9-.8 1c-1.6 2.1-3.4 4.2-4.8 6.3l-.3.4a.5.5 0 0 0-.5 0l-16.3-20.4c-4.9-6-9.6-12-13.5-18.6l-1-1.9-.1-.5v-.3c-1.3-11.3-3.8-22.5-5.7-33.7l-2-12.3 3.4.2a49.6 49.6 0 0 0 11-.6l1.3-.3a38.6 38.6 0 0 0 14.1-5.6 106.1 106.1 0 0 1 2.4 23.2c-.4 14.1-2.2 28.4-1.6 42.6l-2.2-3.1-1.5-2.4-.9-1.5v-.2a32.4 32.4 0 0 1-2-4.5 42.8 42.8 0 0 1-1.6-5.6q-1.8-7.8-3.2-15.8l-1.6-11-1.2-7.4c0-.3-.5-.3-.5 0l.5 5.1c.6 5.3 1.5 10.6 2.4 15.8 1.2 7 2.1 14.6 4.9 21.2 2.5 6 7.1 11.5 11 16.8l1.2 1.5zm3 29.6l.5-.1H99l-.4.1zM88.1 172c-.3 3.4-.2 6.8-.2 10.1v1.6l-.2 3.9a27.6 27.6 0 0 1-4.8.3c-1.4 0-2.8-.4-4.2-.5 0-8.3.2-16.6-.3-24.8v-2.9l2.3 3 3.2 4zm-9.4 22.2l1.3.2-1.3-.2zm1.6-.1zm.1 0zm7.6 1.7a10.6 10.6 0 0 0 1.1-.3 9.2 9.2 0 0 0 2-.7 9.1 9.1 0 0 1-2 .7l-1 .2zm11-12.3l.7-.9-.8 1zm6-7.8l-.8 1.1v-.1l.8-1zm-6.5 10.7c-.4 2.6-1.1 5.1-3.5 6.5 2.1-1.2 2.9-3.4 3.3-5.7l.2-.8zm0-.2zm.6 6.9a9 9 0 0 0 1.3-.7 9 9 0 0 1-1.3.7zm-28.8-25.2l.4 2.5v1.7a7.3 7.3 0 0 0-6.4-.7 8.1 8.1 0 0 0-4 2.6 4.9 4.9 0 0 0-1.4-1.4 7.3 7.3 0 0 0-5-1.3h-.4a11.3 11.3 0 0 0-7.3 3.6 5.8 5.8 0 0 0-.5-.5 5.9 5.9 0 0 0-6.6-.7 5 5 0 0 0-2.1 2l-.2.1-.1.3-10.5-59-5-29-.3-1.7 3.5-1.1A77.3 77.3 0 0 1 54 81.5a.4.4 0 0 0 .2 0 .4.4 0 0 0 .3-.4.5.5 0 0 0-.5-.6h-.6a65.6 65.6 0 0 0-16.2.7 76.6 76.6 0 0 0-16.4 4.5l-2-13.5c-.4-3.3-1.2-6.9 1-9.8l.1-.3a18.4 18.4 0 0 1 2.4-1.6 21.8 21.8 0 0 1 4-1.7l.4-.2c.4 0 .8-.2 1.1-.3a6.2 6.2 0 0 0 1.1.7c2.3 1.2 4.6 2.2 7 3.2L50 68.7l4.8 2.2a.2.2 0 0 0 0 .2l.5 4.1c1.2 10.4 3.3 20.7 5 31 1.8 11.3 3.1 22.8 5.5 34a.6.6 0 0 0 0 .2L69 161l.4 2 .8 5zm-.7 9.3l-2.4 5.4-.5 1.2-.6 1.1c-5 1.7-9.4 3.6-14.6 4.4l-2.1.1-1.6-1.1a85.2 85.2 0 0 1-7-6 19.6 19.6 0 0 1-3.8-4.8l-.1-.2a5.7 5.7 0 0 1 .5-1l.2-.2.3-.4a5.8 5.8 0 0 1 2.5-1.6h.4a5.4 5.4 0 0 1 4.9 1.7.5.5 0 0 0 .8-.2l1.2-1c3.9-2.6 7.9-3.3 12 0a.5.5 0 0 0 0 .1h.1a.5.5 0 0 0 .2 0 .5.5 0 0 0 .1 0 .5.5 0 0 0 .2 0 .5.5 0 0 0 .1-.2.2.2 0 0 0 .2 0l.8-.6A11 11 0 0 1 67 172h.4a6.3 6.3 0 0 1 2.6 1l.3.2.2.2a17.6 17.6 0 0 1-.8 3.4l-.2.4zM53.2 190h.1a14 14 0 0 1-2.8.1 14.1 14.1 0 0 0 2.7-.1zm-2.7.2l2.2 1.5-2.1-1.5zm2.4 1.6l1.7 1q-.9-.4-1.7-1zM29.2 51.7l2-4.5 1.5-3.3 2.4 1A96.5 96.5 0 0 1 46 50.5l-1.3 2c-.3 0-.5.3-.3.5l.6.5 5.5 4.1q4.9 4 9.5 8.3l4 4a.5.5 0 0 0 .2 0l.2.5a19.2 19.2 0 0 1 1.6 6.9 28.5 28.5 0 0 1 0 4l-.2 1.5c-.4 2.4-.7.6-.8-.8v-.8c0-.5-.7-.5-.8 0a10.4 10.4 0 0 1-.6 2.5L63 85c-1.4.5-1.8-.1-2-1 .2-.7.3-1.3.3-2v-.5a2 2 0 0 0 0-.2c0-3-1.2-5.3-.3-8.3V73c.2-.4-.3-.6-.6-.5L43 64.6l-8.6-4-4.2-1.9-.5-.2a5 5 0 0 1-1.3-5.3l.7-1.5zm39.5-38.2l-.4 1.6-.8 2.8-1.5 6-.1.4.1-.5 1.6-6 .7-2.7.4-1.5zm2.5 6v-.1zm3.3-1.4a7 7 0 0 0-1 .5 6.8 6.8 0 0 1 1-.5h.1zm2-2.6a3.8 3.8 0 0 1-2 .2l-.4-.1h.4a3.8 3.8 0 0 0 2 0v-.1zm-5-1.3l-1-.7 1 .7zm-1.1 24.4l-.2-4.6a1.3 1.3 0 0 1 .9-.2h.1l.1 3v.6a9.7 9.7 0 0 1-.9 1.2zm26-4l1.5-.2h.6l2.4-.5a62.7 62.7 0 0 0 14.7-5.6l.1.8a6.6 6.6 0 0 0 4.3 6 5.7 5.7 0 0 0 2 .5 4 4 0 0 0 .4 0H124.1c-6.5 3-13 5.9-19.7 8.6l-4.1 1.7-1.5.5a20.2 20.2 0 0 0-1-7.4l-.2-.8a8.5 8.5 0 0 0-1.8-3.6h.6zm31-6.4a6.5 6.5 0 0 1 0 1l-5.2.1v-.2c-.4-2.4 4.5-.6 5.3-.9zM124 23a.3.3 0 0 0-.3.2 3.5 3.5 0 0 0-2.4 2.3 5.5 5.5 0 0 0 .2 4 .4.4 0 0 0 .3.6.3.3 0 0 0 .4 0h4.9a7.5 7.5 0 0 1-3.2 4.1l-2.5-.4a4.5 4.5 0 0 1-2.5-.4 8.2 8.2 0 0 1-2.6-5.6.4.4 0 0 0 0-.4 9 9 0 0 1 .2-2v-.2l.2-.4c1.9-6.4 9.3-6.2 13-1.4Q127 23 124 23zm8.2 6.8a45.9 45.9 0 0 1 .7 5.2l-8.6-.1a7.4 7.4 0 0 0 1.6-1.3c2-2.1 3.3-6 1.5-8.8a3.8 3.8 0 0 0-.8-1l3.7.4.2.4a19 19 0 0 1 1.7 5.2zM145.6 172h-6.7c.1-5 5.4-3.6 6.7 0z"></path><path d="M230 181.1h-84.1a.4.4 0 0 0 0 1h84a.4.4 0 1 0 0-1zM73.1 26.6h.1c.4.2.8-.4.4-.7a4.9 4.9 0 0 1-1.2-1 2.9 2.9 0 0 1-.5-1.6.3.3 0 0 0-.5 0 3.3 3.3 0 0 0 .7 2.4 2.2 2.2 0 0 0 1 .9zM121.7 175a.5.5 0 0 0 .5-.5 212.5 212.5 0 0 0-.5-29.4l-.2-3a.3.3 0 0 0-.6 0v3.2c-.3 9.7-.3 19.6.3 29.2a.5.5 0 0 0 .5.5zM127.6 181.8c-4.6.3-9.3.3-14 .5a36.3 36.3 0 0 0-4 .1c-.2 0-.4.5 0 .6l4.5.3a117.2 117.2 0 0 0 13.5-.3c.8 0 .8-1.3 0-1.2zM53.3 120.8l-1-4.9c0-.3-.6-.2-.5.2l1.7 10 2.3 14.7.3 2.1 2.4 20.4.9 7c0 .5.8.5.8 0l-.2-1.9a332.7 332.7 0 0 0-6.7-47.6zM21.5 110.3l-.8-3.8c0-.4-.6-.2-.6.2l.5 3c1.4 10 3.3 19.7 4.8 29.6l4.2 29.9.1 1.2.5 3.2c0 .7 1.3.5 1.2-.2-1-11-3-22-4.6-32.8-1.6-10-3.1-20.3-5.3-30.3zM125.5 171.7a.6.6 0 0 0 .6-.6c.6-9.4.4-19 .5-28.4 0-7.6.3-15.1.2-22.7l-.1-5.8a.3.3 0 0 0-.5 0l-.3 5.6c-.4 7.6-.3 15.3-.5 22.9-.2 9.4-.7 19-.4 28.4a.6.6 0 0 0 .5.6zM150.6 48.5l-.1 1.6-.2 1.9h-.5a2.3 2.3 0 0 0-.3.1 4.6 4.6 0 0 0-.6.3.8.8 0 0 0-.2.1 1.2 1.2 0 0 1-.2.2.1.1 0 0 0-.1.2.2.2 0 0 0 .2.1.4.4 0 0 0 0 .2.2.2 0 0 0 .2 0 .1.1 0 0 0 0 .1.3.3 0 0 0 .2 0 1 1 0 0 1 .3-.1 2.3 2.3 0 0 1 .3 0l.7-.1-.1 2.1V57l-.1 1.3a5.7 5.7 0 0 0 0 .7 8.5 8.5 0 0 0 .2.7.4.4 0 0 0 0 .1.9.9 0 0 0 .2.2 1.3 1.3 0 0 0 .2.1.4.4 0 0 0 .1 0 1.8 1.8 0 0 1 .3 0 .5.5 0 0 1 .3.2h.1a1.2 1.2 0 0 1 .2-.2.4.4 0 0 1 .3-.1 2.7 2.7 0 0 0 0-.3 4 4 0 0 0 0-.5v-.6l.1-1.3v-1.7-2.2-.2l.1-.3H158.7a1.2 1.2 0 0 0 0 .2v.2l-.2 1.3v2.5a3.5 3.5 0 0 0 0 .6 3.1 3.1 0 0 0 0 .4l.1.4.1.3a2.7 2.7 0 0 1 0 .4 1 1 0 0 0 .3.5 2.5 2.5 0 0 0 .3.3.2.2 0 0 0 .2 0 .2.2 0 0 0 0 .1.1.1 0 0 0 .1 0 .1.1 0 0 0 .2 0h.2a.6.6 0 0 0 .2-.2 1 1 0 0 0 0-.1 2 2 0 0 0 .4-.1v-.3-.7a6 6 0 0 1-.2-.9v-1.7l.1-3.5.1-2.5.2-2v-1.5l.1-.6a.5.5 0 0 0 0-.2 1.6 1.6 0 0 0-.1-.2l-.1-.2a.8.8 0 0 0-.1-.2 1 1 0 0 0-.2 0 2.1 2.1 0 0 0-.2-.2l-.2-.1a1.7 1.7 0 0 0-.2-.1l-.2-.1a.5.5 0 0 0-.3 0c-.1 0-.2 0-.3.3a4.3 4.3 0 0 0 0 .5v2.2l-.1 1.2v1.3l-.2 1.3a40 40 0 0 0-1.7 0h-3.2l-1.6.2.2-5.8a.2.2 0 0 1 0-.1.3.3 0 0 0 0-.1 2.4 2.4 0 0 0-.1-.2 1 1 0 0 0-.1-.3.8.8 0 0 0-.2-.1l-.1-.2a.3.3 0 0 0-.1 0 .3.3 0 0 0-.2-.1.3.3 0 0 0-.1.2 5 5 0 0 0-.4 0h-.2a.3.3 0 0 0-.1 0 .3.3 0 0 0-.1.3V47l-.1 1.4zM164.3 55.1a2.4 2.4 0 0 0 .4.4 2.6 2.6 0 0 0 .6.3 2.3 2.3 0 0 0 .8.1 3.4 3.4 0 0 0 1.4-.2 2.9 2.9 0 0 0 .9-.6 2.3 2.3 0 0 0 .5-.8 2.1 2.1 0 0 0 .2-.7 2.6 2.6 0 0 0-.2-.8 2.2 2.2 0 0 0-.4-.7 2.3 2.3 0 0 0-.8-.6 3 3 0 0 0-1.3-.3 2.4 2.4 0 0 0-.9.2 3.9 3.9 0 0 0-1 .6 5.7 5.7 0 0 0-.8.8 6 6 0 0 0-.6 1.1 6.4 6.4 0 0 0-.5 1.3 5.2 5.2 0 0 0-.2 1.3 4.6 4.6 0 0 0 .4 1.9 3.9 3.9 0 0 0 .8 1.2 3.5 3.5 0 0 0 1.2.8 3.7 3.7 0 0 0 1.3.2 3.5 3.5 0 0 0 1.3-.2 3.3 3.3 0 0 0 1.6-1.3 4.5 4.5 0 0 0 .7-1.6 3.4 3.4 0 0 0 0-.6v-.4-.3a.5.5 0 0 0 0-.2l-.3.1-.3.6-.5.7a4 4 0 0 1-.6.7 3.1 3.1 0 0 1-.8.5 2.7 2.7 0 0 1-1.1.3 2.4 2.4 0 0 1-1-.2 2 2 0 0 1-.7-.5 2.5 2.5 0 0 1-.5-.9 3.2 3.2 0 0 1-.2-1 5.6 5.6 0 0 1 .2-1.6 4.5 4.5 0 0 0 .3.4zm.4-1.9a3.2 3.2 0 0 1 .7-.6 2.5 2.5 0 0 1 .6-.2 2 2 0 0 1 .5-.1.8.8 0 0 1 .7.3 1.3 1.3 0 0 1 .3.8 1.4 1.4 0 0 1-.1.4 1.2 1.2 0 0 1-.3.5 1.3 1.3 0 0 1-.4.3 1.5 1.5 0 0 1-.6.1 1.9 1.9 0 0 1-.8-.2 1.4 1.4 0 0 1-.7-.6.4.4 0 0 0-.2 0l-.2.2a3.2 3.2 0 0 1 .5-.9zM174.7 54a.5.5 0 0 0 .1.3.2.2 0 0 0 .1.1.4.4 0 0 0 .2 0 .1.1 0 0 1 .2 0 .4.4 0 0 0 0 .2.2.2 0 0 0 .2 0 .4.4 0 0 0 .2-.1 1.3 1.3 0 0 0 .2-.3 2.4 2.4 0 0 0 .2-.5 4.1 4.1 0 0 0 .2-.6 5.2 5.2 0 0 0 0-.6 1.4 1.4 0 0 0 0-.6 1.4 1.4 0 0 0-.4-.5 1.4 1.4 0 0 0-.4-.3 1.3 1.3 0 0 0-.5 0 1.3 1.3 0 0 0-.8.2 2.3 2.3 0 0 0-.5.6 4.2 4.2 0 0 0-.4.8l-.3.8v-.7-.5a.7.7 0 0 0-.1-.2.5.5 0 0 0-.1-.2.6.6 0 0 0-.1-.1.4.4 0 0 1-.1 0 1.7 1.7 0 0 0-.3-.2h-.1-.1l-.2-.1a.6.6 0 0 0-.1 0c0-.1-.1 0-.1 0v.3l-.1.6v1l-.2 1v5.2a3 3 0 0 0 0 .4.4.4 0 0 0 0 .2 2 2 0 0 0 .2.2 1.3 1.3 0 0 0 .1.1.3.3 0 0 0 .4 0h.3l.3-.1a1 1 0 0 0 .2 0 .3.3 0 0 0 .1-.3 6 6 0 0 0 0-.6V58v-2.4a10 10 0 0 1 .4-1.8 5 5 0 0 1 .4-1 1.4 1.4 0 0 1 .4-.5.6.6 0 0 1 .3-.1l.2.1a1.6 1.6 0 0 1 0 .5 5.3 5.3 0 0 1 0 .6 2.6 2.6 0 0 0 0 .6zM178.6 55.1a2.4 2.4 0 0 0 .4.4 2.6 2.6 0 0 0 .6.3 2.3 2.3 0 0 0 .8.1 3.4 3.4 0 0 0 1.4-.2 2.9 2.9 0 0 0 1-.6 2.3 2.3 0 0 0 .4-.8 2.1 2.1 0 0 0 .2-.7 2.6 2.6 0 0 0-.1-.8 2.2 2.2 0 0 0-.5-.7 2.3 2.3 0 0 0-.8-.6 3 3 0 0 0-1.2-.3 2.3 2.3 0 0 0-1 .2 3.9 3.9 0 0 0-.9.6 5.7 5.7 0 0 0-.8.8 6 6 0 0 0-.7 1.1 6.4 6.4 0 0 0-.5 1.3 5.2 5.2 0 0 0-.2 1.3 4.6 4.6 0 0 0 .4 1.9 4 4 0 0 0 .9 1.2 3.5 3.5 0 0 0 1.2.8 3.7 3.7 0 0 0 1.2.2 3.5 3.5 0 0 0 1.3-.2 3.3 3.3 0 0 0 1.6-1.3 4.5 4.5 0 0 0 .7-1.6 3.4 3.4 0 0 0 0-.6v-.4-.3a.7.7 0 0 0 .1 0 .5.5 0 0 0 0-.2l-.3.1-.4.6-.4.7a4 4 0 0 1-.6.7 3.1 3.1 0 0 1-.9.5 2.7 2.7 0 0 1-1.1.3 2.4 2.4 0 0 1-1-.2 2 2 0 0 1-.7-.5 2.5 2.5 0 0 1-.5-.9 3.2 3.2 0 0 1-.1-1 5.5 5.5 0 0 1 .2-1.6 4.4 4.4 0 0 0 .3.4zm.5-1.9a3.2 3.2 0 0 1 .6-.6 2.5 2.5 0 0 1 .7-.2 2 2 0 0 1 .5-.1.8.8 0 0 1 .6.3 1.3 1.3 0 0 1 .3.8 1.4 1.4 0 0 1-.1.4 1.2 1.2 0 0 1-.2.5 1.3 1.3 0 0 1-.5.3 1.5 1.5 0 0 1-.6.1 1.9 1.9 0 0 1-.8-.2 1.4 1.4 0 0 1-.6-.6h-.1a.4.4 0 0 0-.2 0l-.2.2a3.2 3.2 0 0 1 .6-.9zM185.3 48.7a.1.1 0 0 0 0 .2.5.5 0 0 0 .2 0 1.3 1.3 0 0 0 .2.1 1.5 1.5 0 0 0 .2 0 1.4 1.4 0 0 0 .3 0 .5.5 0 0 0 .2 0 3.4 3.4 0 0 0 .5-.5 1.8 1.8 0 0 0 .4-.7l.1-.6.2-.5a3.8 3.8 0 0 0 0-.4v-.4a1 1 0 0 0-.2-.8 1 1 0 0 0-.7-.2h-.2a.8.8 0 0 0-.2 0 .9.9 0 0 0-.3.3 2.1 2.1 0 0 0-.2.3 3.2 3.2 0 0 0-.1.4 1 1 0 0 0 0 .3q0 .4.5.7a3.7 3.7 0 0 1-.3 1 2 2 0 0 1-.6.8zM189.8 57.1a.5.5 0 0 0-.1 0 .5.5 0 0 1-.1 0 1.4 1.4 0 0 0-.4.1 2 2 0 0 0-.6.4 2.3 2.3 0 0 0-.4.6 1.8 1.8 0 0 0-.2.9 1.3 1.3 0 0 0 .5 1 2 2 0 0 0 1.3.4 5.1 5.1 0 0 0 1.4-.2 9.1 9.1 0 0 0 1.7-.8 6 6 0 0 0 1-.6 3.7 3.7 0 0 0 .6-.7 2.1 2.1 0 0 0 .4-1.2 1.7 1.7 0 0 0-.2-1 2.4 2.4 0 0 0-.7-.6 3.4 3.4 0 0 0-.9-.5 7.6 7.6 0 0 0-1-.2 8.7 8.7 0 0 0-1-.1h-1v-.1l.1-.3a5.6 5.6 0 0 1 .5-.3l.7-.5.7-.4a5.5 5.5 0 0 1 .7-.3 1.7 1.7 0 0 1 .6-.2l.1.1v.1l-.2.2-.2.2a.2.2 0 0 0-.1.1.2.2 0 0 0 .1.2.4.4 0 0 0 .3.1.8.8 0 0 0 .3 0 3.2 3.2 0 0 0 1.1-.7 1 1 0 0 0 .4-.8V52a.4.4 0 0 0 0-.1.8.8 0 0 0-.4-.5 1.6 1.6 0 0 0-.7 0 4.4 4.4 0 0 0-.6 0 5.5 5.5 0 0 0-.8.1 9 9 0 0 0-1 .4 10.7 10.7 0 0 0-1.3.7 7.7 7.7 0 0 0-1 .7 4.6 4.6 0 0 0-.6.6 2 2 0 0 0-.3.6 1.4 1.4 0 0 0-.1.4.8.8 0 0 0 0 .5.7.7 0 0 0 .3.2.8.8 0 0 0 .3.1h.7a7.1 7.1 0 0 1 1 0h1a6.2 6.2 0 0 1 .9 0 2.2 2.2 0 0 1 .6.3.3.3 0 0 1 .2.3.9.9 0 0 1-.2.4 3.9 3.9 0 0 1-.5.6 8.3 8.3 0 0 1-.7.6 6.7 6.7 0 0 1-.9.6 5.8 5.8 0 0 1-.9.4 2.7 2.7 0 0 1-.9.2c-.2 0-.3-.1-.3-.2a.6.6 0 0 1 .1-.4 3.5 3.5 0 0 1 .4-.4l.3-.3.2-.2a.2.2 0 0 1-.1-.2l-.1-.2zM155.2 79.5V79a3.4 3.4 0 0 0-.2-.5 1.9 1.9 0 0 0-.2-.4 1.4 1.4 0 0 0-.1-.2l-.2-.2a.8.8 0 0 0-.1 0l-.4-.2h-.3a.7.7 0 0 0-.3-.1 1.5 1.5 0 0 0-.6.3 3.8 3.8 0 0 0-.7.8 8.5 8.5 0 0 0-.8 1.3 12.6 12.6 0 0 0-.7 1.7V80v-.8-.6l.1-1 .1-1.3.1-1.4.1-1.4v-1.1a7.8 7.8 0 0 0 0-.9v-.2a.8.8 0 0 0-.3 0 .4.4 0 0 0-.2 0l-.2.1a.2.2 0 0 1-.1 0 .8.8 0 0 1-.1 0 .7.7 0 0 0-.2 0v.1l-.1.1a.3.3 0 0 0 0 .1.7.7 0 0 0-.1.2l-.2 1-.3 2.5V78.3L149 80V82l-.1 1.8v1.6a.6.6 0 0 0 0 .2 1.6 1.6 0 0 0 0 .2l.1.1a.3.3 0 0 1 0 .2.3.3 0 0 0 .3.2 1.3 1.3 0 0 0 .3 0 .7.7 0 0 1 .2.3l.1.1a.2.2 0 0 0 .2 0 .5.5 0 0 0 0-.2l.7-3q.3-1.3.7-2.2a11.8 11.8 0 0 1 .7-1.4 6.3 6.3 0 0 1 .6-1 1.8 1.8 0 0 1 .4-.3h.2a1.5 1.5 0 0 1 .1.7 8 8 0 0 1-.1 1.5v.8l-.1 1v2.8a2.8 2.8 0 0 0 0 .8 1.2 1.2 0 0 0 .3.2 2.9 2.9 0 0 0 .3.2l.2.2.2.1c0 .1 0 0 .1 0a.4.4 0 0 1 .2 0 .6.6 0 0 0 .3 0v-.2-.9-1-1.1-1l.1-1.5a18.9 18.9 0 0 0 0-1.6zM161.6 77.6a1.4 1.4 0 0 0-.3 0v.2h-.1a.3.3 0 0 1-.1 0 .4.4 0 0 0-.1 0 .3.3 0 0 0-.2 0v.2a.8.8 0 0 0-.1 0 1 1 0 0 0-.2-.1 1 1 0 0 1 .1-.2v-.1a2.8 2.8 0 0 0-.7.1 3.7 3.7 0 0 0-.9.5 6 6 0 0 0-.8.7 4.7 4.7 0 0 0-.8 1 5.7 5.7 0 0 0-.5 1.2 5.6 5.6 0 0 0-.2 1.6 4.5 4.5 0 0 0 .1 1.4 3.7 3.7 0 0 0 .5 1 3.2 3.2 0 0 0 .7.7 3.8 3.8 0 0 0 .8.5 3.7 3.7 0 0 0 .8.3 3.9 3.9 0 0 0 .7 0 3.6 3.6 0 0 0 1.6-.3 4 4 0 0 0 1.3-1 4.6 4.6 0 0 0 .9-1.5 5.9 5.9 0 0 0 .3-2 5.8 5.8 0 0 0-.2-1.5 4.5 4.5 0 0 0-.4-1 3.4 3.4 0 0 0-.6-.8 3.5 3.5 0 0 0-.7-.5 2.6 2.6 0 0 0-.5-.3 1.6 1.6 0 0 0-.4 0zm1.2 4.5a6 6 0 0 1-.2 1.6 4 4 0 0 1-.6 1.2 2.2 2.2 0 0 1-.7.7 1.6 1.6 0 0 1-.8.2 1.6 1.6 0 0 1-.9-.2 2 2 0 0 1-.6-.7 3.3 3.3 0 0 1-.4-1 6 6 0 0 1-.1-1.3 4.6 4.6 0 0 1 .2-1.3 5 5 0 0 1 .5-1.1 4.8 4.8 0 0 1 .6-1 3.5 3.5 0 0 1 .7-.5.6.6 0 0 0 .3.1h.2a1.1 1.1 0 0 1 .4.2 2.3 2.3 0 0 1 .6.5 4 4 0 0 1 .5 1 4.3 4.3 0 0 1 .3 1.6zM171.1 77.7a3.1 3.1 0 0 1-.1.4l-.4.9-.5 1-.6 1.3-.6 1.1-.4.9-.2-1-.3-1.2-.3-1.3-.3-1.1-.2-.9a3.7 3.7 0 0 1-.1-.4.2.2 0 0 0 0-.1.2.2 0 0 0-.2 0 .7.7 0 0 0-.1 0h-.2a1 1 0 0 0-.2 0 .1.1 0 0 0-.1 0 .5.5 0 0 0 0 .1.2.2 0 0 1 0 .1.1.1 0 0 1-.1 0h-.4l-.2-.1a1.6 1.6 0 0 0-.2 0 .2.2 0 0 0-.1 0V78l.3.8.3 1.2.4 1.3.4 1.4a83.5 83.5 0 0 1 1 3.5.8.8 0 0 0 .1 0l.3.3a.2.2 0 0 0 .2 0 .8.8 0 0 0 .1-.2l.3-.8.5-1 .6-1.4.5-1.2.5-1.1.3-.8a7.5 7.5 0 0 1 .3.8l.3 1.2.3 1.2.3 1.3.2.9a3.7 3.7 0 0 1 0 .4.5.5 0 0 0 0 .2.5.5 0 0 0 .1.1.4.4 0 0 0 .1.1.6.6 0 0 1 .1 0 .3.3 0 0 0 .1.1h.1a.3.3 0 0 1 .2 0 1.2 1.2 0 0 0 .3-.1.1.1 0 0 1 .1 0 .6.6 0 0 0 .1 0 .2.2 0 0 0 .1 0 .4.4 0 0 0 .2-.2.6.6 0 0 0 0-.1l.1-.2.2-.3.1-.4.3-.5.4-.9.7-1.1.6-1.2.7-1.3.6-1 .4-.8.2-.4q.1-.2-.3-.5a.5.5 0 0 0-.2-.1.2.2 0 0 0-.1 0h-.1a.1.1 0 0 0-.2.1.2.2 0 0 0-.1.1 1.1 1.1 0 0 0-.1.2l-.3.6-.6 1-.7 1.3-.7 1.3-.6 1.1-.4.8-.3-1-.3-1-.4-1.3-.3-1.2-.2-1.1-.2-.8a.4.4 0 0 0 0-.1h-.2a.4.4 0 0 0-.1 0 .1.1 0 0 1-.2 0 .2.2 0 0 0-.2 0v.2c0 .1 0 .1-.1 0a.1.1 0 0 0-.2 0v.3zM184.7 81.1l-.3-1.3-.3-1.1-.2-1a4 4 0 0 1 0-.3.2.2 0 0 0-.1-.1.2.2 0 0 0-.1 0 .7.7 0 0 0-.2-.1h-.1a1 1 0 0 0-.3 0 .1.1 0 0 0 0 .1.5.5 0 0 0 0 .1.2.2 0 0 1 0 .1.1.1 0 0 1-.2 0h-.4l-.2-.1a1.6 1.6 0 0 0-.2 0c-.1 0-.1 0 0 .2v.4l.2.8.4 1.2.3 1.3.4 1.4.3 1.3.3 1.2a35.2 35.2 0 0 1 .4 1 .8.8 0 0 0 .2 0l.2.3a.1.1 0 0 0 .1 0 .2.2 0 0 0 .1 0 .4.4 0 0 0 .1 0 .8.8 0 0 0 .1-.2l.3-.8.5-1 .5-1.4.6-1.2.4-1.1.4-.8a7.8 7.8 0 0 1 .2.8l.3 1.1.3 1.3.3 1.3.2.9a3.7 3.7 0 0 1 0 .4.5.5 0 0 0 .1.2.6.6 0 0 0 0 .1.5.5 0 0 0 .2.1.3.3 0 0 0 .2.1.4.4 0 0 1 .3 0 1.2 1.2 0 0 0 .2-.2.1.1 0 0 1 .2 0 .2.2 0 0 0 .2 0 .4.4 0 0 0 .1 0 .6.6 0 0 0 0-.2l.2-.2.1-.3.2-.4.2-.5.5-.9.6-1.1.7-1.2.6-1.3.6-1 .4-.8.2-.4q.2-.2-.3-.5l-.2-.1h-.1a.1.1 0 0 0-.1 0 .1.1 0 0 0-.1.1h-.1a.2.2 0 0 0 0 .1 1.2 1.2 0 0 0-.2.2l-.3.6-.5 1-.7 1.3-.7 1.3-.7 1.1-.4.8-.3-1-.3-1c0-.5-.2-.9-.3-1.3l-.3-1.3-.3-1-.1-.8a.4.4 0 0 0 0-.1h-.4a.1.1 0 0 1-.1 0h-.1a.2.2 0 0 0-.1 0v.2c-.1.1-.1.1-.2 0a.1.1 0 0 0-.1 0l-.1.3a3.3 3.3 0 0 1-.2.4l-.4.9-.5 1-.6 1.3-.5 1.1-.4.9-.3-1-.3-1.2zM196.9 81.3a2.4 2.4 0 0 0 .4.4 2.6 2.6 0 0 0 .6.3 2.3 2.3 0 0 0 .8.1 3.4 3.4 0 0 0 1.4-.2 2.8 2.8 0 0 0 .9-.7 2.3 2.3 0 0 0 .5-.7 2 2 0 0 0 .2-.8 2.6 2.6 0 0 0-.2-.7 2.2 2.2 0 0 0-.4-.8 2.3 2.3 0 0 0-.8-.6 3 3 0 0 0-1.3-.2 2.3 2.3 0 0 0-.9.2 3.9 3.9 0 0 0-1 .5 5.7 5.7 0 0 0-.7.9 6 6 0 0 0-.7 1 6.4 6.4 0 0 0-.5 1.3 5.2 5.2 0 0 0-.2 1.4 4.6 4.6 0 0 0 .4 1.8 4 4 0 0 0 .8 1.3 3.5 3.5 0 0 0 1.2.8 3.7 3.7 0 0 0 1.3.2 3.5 3.5 0 0 0 1.3-.2 3.3 3.3 0 0 0 1.6-1.3 4.5 4.5 0 0 0 .4-.8 4.6 4.6 0 0 0 .3-.8 3.4 3.4 0 0 0 0-.6v-.4-.3a.6.6 0 0 0 0-.2v-.1s-.2 0-.3.2l-.3.5-.5.7a4 4 0 0 1-.6.8 3.1 3.1 0 0 1-.8.5 2.7 2.7 0 0 1-1.1.2 2.4 2.4 0 0 1-1-.1 2 2 0 0 1-.7-.6 2.5 2.5 0 0 1-.5-.8 3.2 3.2 0 0 1-.2-1 5.6 5.6 0 0 1 .2-1.6 4.3 4.3 0 0 0 .4.4zm.4-2a3.2 3.2 0 0 1 .7-.5 2.5 2.5 0 0 1 .6-.3 2 2 0 0 1 .5 0 .8.8 0 0 1 .7.3 1.3 1.3 0 0 1 .3.8 1.4 1.4 0 0 1-.1.4 1.2 1.2 0 0 1-.3.4 1.3 1.3 0 0 1-.4.3 1.5 1.5 0 0 1-.6.2 1.9 1.9 0 0 1-.8-.2 1.4 1.4 0 0 1-.7-.6.5.5 0 0 0-.2 0l-.2.1a3.2 3.2 0 0 1 .5-.8zM213 80.4h.2a.3.3 0 0 1 .1 0h.3a1 1 0 0 0 .5-.1 1.2 1.2 0 0 0 .3-.4 1.2 1.2 0 0 0 .2-.7 1.2 1.2 0 0 0-.1-.4 1.9 1.9 0 0 0-.5-.6 3 3 0 0 0-.9-.5 3.7 3.7 0 0 0-1.3-.2 3.7 3.7 0 0 0-1.6.4 4.8 4.8 0 0 0-1.4 1 5.2 5.2 0 0 0-1 1.5 4.7 4.7 0 0 0-.4 1.9 4.3 4.3 0 0 0 .4 1.8 4.4 4.4 0 0 0 .9 1.3 4.1 4.1 0 0 0 1.3.9 3.7 3.7 0 0 0 1.4.3 3.6 3.6 0 0 0 1.6-.3 3.9 3.9 0 0 0 1.9-2 3.1 3.1 0 0 0 .3-1.3.3.3 0 0 0 0-.1.2.2 0 0 0-.2-.1.2.2 0 0 0-.1 0 .3.3 0 0 0-.1 0c0 .1 0 .2-.2.3a3.8 3.8 0 0 1-.2.4 5 5 0 0 1-.5.5 3.8 3.8 0 0 1-.6.4 3.5 3.5 0 0 1-.8.4 3 3 0 0 1-.9.1 2.6 2.6 0 0 1-1.2-.2 2.2 2.2 0 0 1-.8-.7 2.5 2.5 0 0 1-.4-.9 4 4 0 0 1-.1-.9 4.7 4.7 0 0 1 .3-1.7 4.1 4.1 0 0 1 .7-1.2 2.8 2.8 0 0 1 .9-.7 2 2 0 0 1 .8-.3 2 2 0 0 1 .8.2 1.1 1.1 0 0 1 .4.3.8.8 0 0 1 .2.4.8.8 0 0 1-.1.5.7.7 0 0 0 0 .2v.2a.2.2 0 0 1 0 .2q-.1 0 0 0zM218.9 81.6a9.6 9.6 0 0 0-1 .7 5.8 5.8 0 0 0-1 .9 4.8 4.8 0 0 0-.7 1 3.5 3.5 0 0 0-.3 1.3.9.9 0 0 0 .2.5 6.3 6.3 0 0 0 .7.8 1.2 1.2 0 0 0 .4.2 1.8 1.8 0 0 0 .6.1 2.7 2.7 0 0 0 .7 0 2.8 2.8 0 0 0 .8-.4 4.3 4.3 0 0 0 .8-.7 5.3 5.3 0 0 0 .7-1.1 11 11 0 0 0 .1.9 3.5 3.5 0 0 0 0 .3.8.8 0 0 0 .2.2.7.7 0 0 0 .2.3l.4.2a.1.1 0 0 0 .1 0 .5.5 0 0 1 .1 0 .3.3 0 0 1 .1 0 .5.5 0 0 1 .2 0 .2.2 0 0 0 .2 0 .4.4 0 0 0 .2-.1.2.2 0 0 0 0-.2v-.2a.6.6 0 0 0 0-.4 1.9 1.9 0 0 1-.2-.6 4.6 4.6 0 0 1 0-.7 9.2 9.2 0 0 1 0-1.2l.2-1.3.2-1.1a5.5 5.5 0 0 0 0-1 5.1 5.1 0 0 0 0-.5 4.5 4.5 0 0 0-.2-.6 3.7 3.7 0 0 0-.3-.7 2.6 2.6 0 0 0-.5-.7 2.5 2.5 0 0 0-.7-.4 2.7 2.7 0 0 0-1-.2 2.8 2.8 0 0 0-1.5.3 4.3 4.3 0 0 0-1.1 1 4.8 4.8 0 0 0-.8 1.3 3.5 3.5 0 0 0-.3 1.3v.1h.2l.1.1a1 1 0 0 1 .2.2h.1a.4.4 0 0 0 .1.1.5.5 0 0 0 .2 0 .8.8 0 0 1 .1 0h.2a.5.5 0 0 0 .2-.1v-.1a4 4 0 0 1 0-.5 3.9 3.9 0 0 1 .1-1.1 3.6 3.6 0 0 1 .4-.9 2.2 2.2 0 0 1 .6-.6 1 1 0 0 1 .6-.2 1 1 0 0 1 .8.3 2 2 0 0 1 .5 1 3.6 3.6 0 0 1 0 .6l.1 1-1 .4a8.7 8.7 0 0 0-1 .5zm2 .4v1a14.7 14.7 0 0 1-1.5 2.2 4.7 4.7 0 0 1-.7.6 2.2 2.2 0 0 1-.7.4 1 1 0 0 1-.7 0 .3.3 0 0 1-.2-.2.8.8 0 0 1 0-.4 2.4 2.4 0 0 1 .2-.7 4.3 4.3 0 0 1 .6-.8 6.2 6.2 0 0 1 .7-.8 7.8 7.8 0 0 1 .8-.6 7.6 7.6 0 0 1 .8-.4 7.1 7.1 0 0 1 .7-.3zM224.8 81.7l-.2 1.5-.1 1.3-.1 1v.5a.3.3 0 0 0 .1.3 1 1 0 0 0 .6.1.4.4 0 0 0 .2 0 .2.2 0 0 1 .2-.1.3.3 0 0 1 .1 0 .5.5 0 0 1 .1.1.2.2 0 0 0 .2.1l.2-.3c.2-.2.1-.6.2-1l.4-1.2.4-1.5.5-1.5.5-1.3a6.6 6.6 0 0 1 .5-1l.5-.4q.2 0 .3.4a5.1 5.1 0 0 1 .1 1.2v2.4l-.2 1.3v1a3.2 3.2 0 0 0 0 .6 2.7 2.7 0 0 0 .2.5 1.2 1.2 0 0 0 .2.4.5.5 0 0 0 .4.2.4.4 0 0 0 .2 0 .2.2 0 0 1 .2-.1.2.2 0 0 0 .2 0 .3.3 0 0 0 .3 0 .6.6 0 0 0 0-.4 5.5 5.5 0 0 0 0-.6 7.3 7.3 0 0 1 0-1v-1-1l.2-1.2v-1a6.7 6.7 0 0 0 0-1 2.5 2.5 0 0 0-.4-1 1.5 1.5 0 0 0-.5-.5 1.9 1.9 0 0 0-1-.2 1.1 1.1 0 0 0-.7.2 3.2 3.2 0 0 0-.6.7 6.4 6.4 0 0 0-.6 1l-.4 1.1-.4 1.1-.3 1v-1l.1-1.2V79l.1-1a2 2 0 0 0 0-.3 1.3 1.3 0 0 0-.1-.3.5.5 0 0 0-.2-.2h-.1a.7.7 0 0 1 0 .1.3.3 0 0 1-.1.1.4.4 0 0 1-.3 0 .1.1 0 0 0-.1.1h-.1l-.1.2a.1.1 0 0 1-.1 0 .3.3 0 0 0 0-.1.3.3 0 0 0-.4-.2V80.3l-.1 1.5zM155 108.8l.1-1.6V106v-.3-.4a3.4 3.4 0 0 0-.1-.5 1.9 1.9 0 0 0-.2-.4 1.5 1.5 0 0 0-.1-.3l-.2-.1a.8.8 0 0 0-.1-.1l-.4-.1-.3-.1a.7.7 0 0 0-.3 0 1.5 1.5 0 0 0-.6.3 3.9 3.9 0 0 0-.7.7 8.5 8.5 0 0 0-.8 1.3 12.6 12.6 0 0 0-.7 1.8V106.1v-.7-.6l.1-1 .1-1.4.1-1.3.1-1.4v-1.2a7.8 7.8 0 0 0 0-.8v-.2a.7.7 0 0 0-.3 0 .4.4 0 0 0-.2 0l-.2.1a.2.2 0 0 1-.1 0 1 1 0 0 1-.1 0 .7.7 0 0 0-.2 0v.1l-.1.1a.7.7 0 0 0-.1.2l-.2 1-.3 2.6v2.8l-.1 1.8v1.9l-.1 1.8v1.6a.6.6 0 0 0 0 .2 1.4 1.4 0 0 0 0 .2l.1.1a.3.3 0 0 1 0 .1.3.3 0 0 0 .3.3 1.4 1.4 0 0 0 .3 0 .7.7 0 0 1 .2.3l.1.1a.2.2 0 0 0 .2 0 .5.5 0 0 0 0-.3l.7-3 .7-2.1a12 12 0 0 1 .7-1.5 6.5 6.5 0 0 1 .6-.8 1.9 1.9 0 0 1 .4-.4c0-.1.1-.1.2 0a1.5 1.5 0 0 1 .1.6 8 8 0 0 1-.1 1.5v1l-.1.8v2.9a2.7 2.7 0 0 0 0 .7 1.2 1.2 0 0 0 .3.2 2.9 2.9 0 0 0 .3.3l.2.1.2.2h.1a.4.4 0 0 1 .2 0 .6.6 0 0 0 .3 0v-.2-.9-1-1.1-1zM164 108.4v-.1c-.2 0-.2 0-.3.2l-.4.5-.4.7a4 4 0 0 1-.7.7 3 3 0 0 1-.8.6 2.7 2.7 0 0 1-1.1.2 2.4 2.4 0 0 1-1-.2 2 2 0 0 1-.7-.5 2.5 2.5 0 0 1-.5-.8 3.2 3.2 0 0 1-.1-1.1 5.6 5.6 0 0 1 .2-1.6 4.3 4.3 0 0 0 .3.4 2.4 2.4 0 0 0 .4.5 2.6 2.6 0 0 0 .6.3 2.3 2.3 0 0 0 .8 0 3.4 3.4 0 0 0 1.4-.2 2.9 2.9 0 0 0 1-.6 2.3 2.3 0 0 0 .4-.8 2 2 0 0 0 .2-.7 2.6 2.6 0 0 0-.2-.7 2.2 2.2 0 0 0-.4-.8 2.4 2.4 0 0 0-.8-.6 3 3 0 0 0-1.3-.3 2.3 2.3 0 0 0-.9.2 3.9 3.9 0 0 0-.9.6 5.7 5.7 0 0 0-.8.9 6 6 0 0 0-.7 1 6.5 6.5 0 0 0-.5 1.3 5.2 5.2 0 0 0-.2 1.3 4.6 4.6 0 0 0 .4 1.9 3.9 3.9 0 0 0 .9 1.3 3.4 3.4 0 0 0 1.2.7 3.7 3.7 0 0 0 1.2.3 3.5 3.5 0 0 0 1.3-.2 3.3 3.3 0 0 0 1.6-1.3 4.5 4.5 0 0 0 .7-1.6 3.4 3.4 0 0 0 0-.7v-.3-.3a.7.7 0 0 0 0-.1.5.5 0 0 0 .1-.1zm-5-2.9a3.3 3.3 0 0 1 .6-.5 2.5 2.5 0 0 1 .7-.3 2 2 0 0 1 .5 0 .8.8 0 0 1 .6.2 1.3 1.3 0 0 1 .3.8 1.5 1.5 0 0 1-.1.5 1.2 1.2 0 0 1-.2.4 1.3 1.3 0 0 1-.5.3 1.5 1.5 0 0 1-.6.1 1.9 1.9 0 0 1-.8-.1 1.4 1.4 0 0 1-.6-.6h-.1a.4.4 0 0 0-.2 0l-.2.1a3.2 3.2 0 0 1 .6-.9zM167.2 105.3V104v-1.4l.2-1.5V100v-1l.1-.6a.3.3 0 0 0 0-.2.7.7 0 0 0-.1-.1.2.2 0 0 0-.2 0h-.1a1 1 0 0 1-.2 0 .4.4 0 0 1-.1.1.2.2 0 0 1-.1 0h-.1a.2.2 0 0 0-.2-.1.3.3 0 0 1-.2 0 .1.1 0 0 0-.2 0 .1.1 0 0 0 0 .2 2.7 2.7 0 0 1 0 .4v.9l-.2 1.2-.2 1.5v1.7l-.1 1.7v6.4a5 5 0 0 0 .1 1 .3.3 0 0 0 .2 0 1 1 0 0 1 0 .1h.2a.1.1 0 0 0 0 .1.3.3 0 0 0 .2 0 .5.5 0 0 0 .2-.2 1 1 0 0 0 .2-.4.3.3 0 0 0 .2 0 .4.4 0 0 0 .1.1.2.2 0 0 0 .2 0 .5.5 0 0 0 .1-.3v-.4-.7-1-1.1-1.3-1.1-.8-.7zM171 112h.1a1 1 0 0 0 .1.2 2.4 2.4 0 0 1 .3.4.7.7 0 0 0 .2.2.7.7 0 0 0 .2 0 2.2 2.2 0 0 0 .5 0 5 5 0 0 0 1-.4 7.9 7.9 0 0 0 1.1-.7 7 7 0 0 0 1.1-1 5.2 5.2 0 0 0 .7-1 3.5 3.5 0 0 0 .4-.8 3.7 3.7 0 0 0 0-.9 3.8 3.8 0 0 0 0-.9l-.2-.7a5.9 5.9 0 0 0-.5-1 1.8 1.8 0 0 0-.6-.8 3.3 3.3 0 0 0-1-.4 5 5 0 0 0-1.1-.1 6.3 6.3 0 0 0-1 0 8.3 8.3 0 0 0-1 .3v-.6a1.7 1.7 0 0 1 .1-.3.6.6 0 0 0 0-.4.3.3 0 0 0-.3-.1.2.2 0 0 1-.1-.1l-.1-.1a.5.5 0 0 0-.1-.2.2.2 0 0 0-.1 0 .5.5 0 0 0-.2 0 .2.2 0 0 0 0 .1.4.4 0 0 1-.1.2 2 2 0 0 0-.3.6l-.2 1.4-.8.3a2.8 2.8 0 0 0-.4.3l-.3.3a.3.3 0 0 0 0 .2.6.6 0 0 0 .2.1.1.1 0 0 0-.2.1.1.1 0 0 0 0 .1.3.3 0 0 0 0 .2.2.2 0 0 0 .2 0h.1a.5.5 0 0 1 0 .1.4.4 0 0 0 0 .1.3.3 0 0 0 .2.1.5.5 0 0 0 .3 0 3.5 3.5 0 0 0 .5-.1l-.2 2.4-.1 2.8v6a3.1 3.1 0 0 0 0 .3 1.7 1.7 0 0 0 .2.5.5.5 0 0 0 .2.2.2.2 0 0 0 .2 0 .6.6 0 0 0 .2-.2 2 2 0 0 1 .3-.3.5.5 0 0 1 .3 0 .2.2 0 0 0 .2-.2.3.3 0 0 0 0-.1 1.4 1.4 0 0 0 0-.3 2 2 0 0 1 0-.2v-.9-1-1.8-2zm.2-6a7.9 7.9 0 0 1 1.2-.3 5.3 5.3 0 0 1 1-.1 3.3 3.3 0 0 1 1.1.2 2.3 2.3 0 0 1 .8.4 1.8 1.8 0 0 1 .4.5 1.3 1.3 0 0 1 .2.7 2.4 2.4 0 0 1-.3 1 3.2 3.2 0 0 1-.5.8 4.3 4.3 0 0 1-.9.7 7 7 0 0 1-1 .4 5.3 5.3 0 0 1-.9.3 4 4 0 0 1-.8.1h-.2a.8.8 0 0 1-.3 0zM183.6 114.3l-.7 1.3-.6 1.2q-.2.6-.5.9a3.5 3.5 0 0 0-.2.5 2.5 2.5 0 0 0 0 .3l-.1.4a.4.4 0 0 1 .1 0 .1.1 0 0 1 0 .1l.1.1.2.1a1.4 1.4 0 0 1 .1.2.5.5 0 0 0 .1.1.1.1 0 0 0 .1 0 .6.6 0 0 0 .3 0 .8.8 0 0 0 .1-.3l.2-.4.4-.8.5-1.2.6-1.3.6-1.3.6-1.3.5-1 .4-.7.3-.6.6-1 .7-1.1.8-1.3.7-1.2.7-1 .5-.9.2-.3a.3.3 0 0 0 0-.2.4.4 0 0 0-.2-.1h-.1a.2.2 0 0 0-.1 0h-.2-.1a.1.1 0 0 0-.1 0 .7.7 0 0 1-.2 0 .3.3 0 0 0-.1 0 1 1 0 0 1-.1 0h-.1a.4.4 0 0 1-.1.2l-.4.5-.5.9-.7 1-.7 1.2-.6 1.2-.7 1.2a16.9 16.9 0 0 1-1-2l-.5-1.1-.5-1.2-.4-.9c0-.3-.2-.4-.2-.5a.6.6 0 0 0-.2-.3.3.3 0 0 0-.2 0h-.2a.1.1 0 0 1 0 .1.5.5 0 0 0-.3 0h-.2s0 .1-.2 0h-.2l-.2-.1a.4.4 0 0 0-.1 0 .1.1 0 0 0-.1 0 .3.3 0 0 0 0 .2 1.8 1.8 0 0 0 0 .4l.4.8a50.8 50.8 0 0 0 1.6 3.6l.6 1.2.5 1 .4.8-.6 1.2-.7 1.4zM191.3 111.3a3.2 3.2 0 0 0 .7.7 3.8 3.8 0 0 0 1.6.7 3.9 3.9 0 0 0 .8.1 3.7 3.7 0 0 0 1.5-.3 4 4 0 0 0 1.3-1 4.6 4.6 0 0 0 .9-1.5 5.9 5.9 0 0 0 .3-2 5.8 5.8 0 0 0-.1-1.5 4.5 4.5 0 0 0-.5-1.1 3.3 3.3 0 0 0-.6-.8 3.5 3.5 0 0 0-.6-.5 2.6 2.6 0 0 0-.6-.2 1.6 1.6 0 0 0-.4 0 1.4 1.4 0 0 0-.3 0v.1a.3.3 0 0 1-.2 0 .3.3 0 0 0-.2 0l-.1.1a.8.8 0 0 0-.1 0 1 1 0 0 0-.1 0c-.1 0-.1 0 0-.1a1.2 1.2 0 0 1 0-.1.3.3 0 0 0 .1-.1h-.1a2.8 2.8 0 0 0-.7.1 3.8 3.8 0 0 0-.8.4 6 6 0 0 0-.9.7 4.7 4.7 0 0 0-.7 1 5.7 5.7 0 0 0-.6 1.3 5.6 5.6 0 0 0-.2 1.6 4.5 4.5 0 0 0 .2 1.4 3.7 3.7 0 0 0 .4 1zm1.4-3.8a5 5 0 0 1 .5-1.2 4.8 4.8 0 0 1 .6-.8 3.5 3.5 0 0 1 .8-.6.5.5 0 0 0 .2.1h.3a1.1 1.1 0 0 1 .3.2 2.2 2.2 0 0 1 .6.5 4 4 0 0 1 .5 1 4.3 4.3 0 0 1 .3 1.6 5.9 5.9 0 0 1-.2 1.6 4 4 0 0 1-.5 1.2 2.2 2.2 0 0 1-.8.7 1.6 1.6 0 0 1-.8.2 1.5 1.5 0 0 1-.8-.2 2 2 0 0 1-.6-.7 3.3 3.3 0 0 1-.4-1 6 6 0 0 1-.2-1.3 4.6 4.6 0 0 1 .2-1.3zM206.4 106l.1-1v-1.1-.2a2 2 0 0 0-.4 0 3.5 3.5 0 0 0-.4-.1 2.9 2.9 0 0 0-.4 0h-.1l-.8 3-.7 2a11.2 11.2 0 0 1-.6 1.4 4.8 4.8 0 0 1-.5.7 1.5 1.5 0 0 1-.4.4.7.7 0 0 1-.3.1l-.2-.2a2 2 0 0 1-.1-.4v-.7-.7a19.3 19.3 0 0 1 .1-3.3l.1-1 .1-.6v-.3a.4.4 0 0 0 .1-.1v-.1l-.1-.2a.5.5 0 0 0-.2 0 1.3 1.3 0 0 1-.5 0 2 2 0 0 1-.4 0 1.6 1.6 0 0 0-.3 0s-.2 0-.2.3a4.2 4.2 0 0 0-.2.7l-.1 1v1c-.2.4-.1.7-.1 1v2.6a6 6 0 0 0 .2.6 1 1 0 0 0 0 .4 2 2 0 0 0 .3.2 16 16 0 0 0 1.3 1l.4.2a.6.6 0 0 0 .2.1.8.8 0 0 0 .2 0 1.5 1.5 0 0 0 .3-.1 2.3 2.3 0 0 0 .3-.3 2 2 0 0 0 .3-.3 5.7 5.7 0 0 0 .5-.7 7.5 7.5 0 0 0 .4-.8 7.2 7.2 0 0 0 .2-.9l.2-.8v2.5a2 2 0 0 0 0 .4.8.8 0 0 0 .2.4 1.8 1.8 0 0 0 .4.4 2 2 0 0 0 .4.2 1 1 0 0 0 .3 0 .6.6 0 0 0 .4 0l.1-.3a19.7 19.7 0 0 1-.2-3.8v-1.3l.1-1.2zM209.2 110.2h-.2a.7.7 0 0 0-.3.2.8.8 0 0 0-.3.2 2.6 2.6 0 0 0-.2.4 3.2 3.2 0 0 0-.1.4 1.2 1.2 0 0 0-.1.3.7.7 0 0 0 .1.5 1 1 0 0 0 .4.3l.3.1a.8.8 0 0 0 .3.1 2 2 0 0 0 .7-.1.4.4 0 0 0 .2-.2 1.2 1.2 0 0 0 .1-.3 2.5 2.5 0 0 0 .1-.4 1.7 1.7 0 0 0 0-.4 1.2 1.2 0 0 0-.3-.8 1 1 0 0 0-.7-.3zM212.5 110.3a.7.7 0 0 0-.2 0 .8.8 0 0 0-.3.3 2.7 2.7 0 0 0-.2.4 3.2 3.2 0 0 0-.2.4 1.2 1.2 0 0 0 0 .3.7.7 0 0 0 .1.5 1 1 0 0 0 .4.3l.3.1a.8.8 0 0 0 .3.1 2 2 0 0 0 .6-.1.4.4 0 0 0 .3-.2 1.2 1.2 0 0 0 .1-.3 2.5 2.5 0 0 0 0-.4 1.7 1.7 0 0 0 .1-.4 1.2 1.2 0 0 0-.3-.8 1 1 0 0 0-.7-.3h-.3z"></path></svg>